<svg width="126" height="45" viewBox="0 0 126 45" fill="none" xmlns="http://www.w3.org/2000/svg">
<g clip-path="url(#clip0_2543_77)">
<path d="M121.265 31.9355C120.957 34.1688 120.648 36.2904 120.34 38.5236C80.3292 38.5236 40.319 38.5236 0.205811 38.5236C0.411519 36.2904 0.617227 34.1688 0.92579 31.9355C41.1418 31.9355 81.1521 31.9355 121.265 31.9355Z" fill="white"/>
<path d="M112.934 16.7495C111.7 14.4046 110.671 12.3947 109.54 10.2731C109.437 10.2731 109.334 10.2731 109.231 10.2731C108.511 15.1862 107.791 20.0994 107.071 25.1242C105.22 25.1242 103.368 25.1242 101.311 25.1242C101.517 23.5609 101.723 22.1093 101.928 20.6577C102.854 14.1813 103.78 7.70483 104.705 1.2284C104.808 0.558426 105.014 0.223438 105.631 0.335101C105.94 0.335101 106.248 0.335101 106.557 0.335101C110.465 0.223438 110.465 0.223438 112.317 3.9083C112.934 5.24825 113.551 6.47654 114.271 7.92815C114.888 7.25818 115.402 6.5882 115.917 6.02989C117.357 4.24329 118.694 2.45669 120.134 0.781751C120.236 0.558426 120.545 0.446763 120.648 0.446763C122.294 0.446763 124.042 0.446763 125.791 0.446763C125.071 5.13659 124.453 9.60309 123.836 14.1813C123.322 17.5311 122.808 20.881 122.396 24.3425C122.294 25.1242 122.088 25.4592 121.265 25.4592C119.722 25.3475 118.179 25.4592 116.431 25.4592C117.151 20.4344 117.871 15.5212 118.591 10.4964C118.488 10.4964 118.385 10.3847 118.385 10.3847C116.534 12.283 114.785 14.4046 112.934 16.7495Z" fill="white"/>
<path d="M22.3193 25.0123C22.9365 20.4341 23.6564 16.0793 24.2736 11.7245C24.4793 10.3845 24.685 9.04455 24.7878 7.59294C24.8907 6.69964 25.1993 6.47631 26.0221 6.47631C27.5649 6.58798 29.1077 6.47631 30.8562 6.47631C30.2391 10.8312 29.622 15.0743 29.0049 19.5408C30.6505 19.5408 32.2962 19.6525 33.839 19.5408C35.279 19.4292 35.9989 18.3125 35.279 16.9726C34.6618 15.6326 33.6333 14.6277 32.7076 13.5111C32.1933 12.9527 31.4734 12.5061 30.6505 11.9478C31.5762 11.2778 32.5019 10.6078 33.4276 9.82619C34.2504 9.15621 35.0733 8.5979 35.6904 7.81626C36.4104 6.92296 36.1018 5.918 34.9704 5.80634C32.9133 5.58301 30.9591 5.58301 28.902 5.47135C27.3592 5.47135 25.8164 5.47135 24.0679 5.47135C24.7878 3.68475 25.5078 1.89815 26.2278 0.223212C30.2391 0.223212 34.1476 0.111549 38.056 0.223212C41.9645 0.334874 43.0959 2.90311 42.8902 5.35969C42.6845 7.25795 41.7588 8.70956 40.4217 9.93785C39.9074 10.3845 39.496 10.8312 39.0846 11.2778C39.8046 12.2828 40.4217 13.1761 41.0388 14.181C43.1987 17.7542 41.6559 23.449 37.3361 24.3423C35.279 24.789 33.119 24.9006 31.0619 25.0123C28.182 25.124 25.3021 25.0123 22.3193 25.0123Z" fill="white"/>
<path d="M61.4038 0.223389C61.6096 2.00999 61.8153 3.68493 61.9181 5.58319C58.8325 5.58319 55.8497 5.58319 52.7641 5.58319C52.5584 6.81148 52.3527 8.15143 52.147 9.49138C54.924 9.49138 57.5982 9.49138 60.581 9.49138C59.861 11.3896 59.1411 13.0646 58.4211 14.7395C58.3182 14.9628 57.8039 15.0745 57.4954 15.0745C55.7469 15.0745 54.1012 15.1862 52.3527 15.0745C51.6327 15.0745 51.3241 15.2978 51.2213 16.0795C51.1184 17.3078 50.8099 18.4244 50.6042 19.7643C53.8955 19.7643 57.084 19.7643 60.4782 19.7643C59.6553 21.6626 59.0382 23.4492 58.3182 25.2358C53.5869 25.2358 48.8556 25.2358 44.0215 25.2358C45.2557 16.9728 46.3871 8.70974 47.6214 0.446714C52.3527 0.223389 56.8783 0.223389 61.4038 0.223389Z" fill="white"/>
<path d="M99.7687 9.49138C99.0487 11.3896 98.3287 13.0646 97.6087 14.9628C95.6545 14.9628 93.5974 14.9628 91.6432 14.9628C90.8204 14.9628 90.6147 15.1862 90.5118 16.0795C90.409 17.1961 90.2032 18.4244 89.9975 19.6527C93.186 19.6527 96.3745 19.6527 99.7687 19.6527C99.0487 21.4393 98.4316 23.1142 97.7116 24.7891C97.6087 25.0125 97.3002 25.1241 97.0945 25.1241C92.5689 25.1241 88.0433 25.1241 83.312 25.1241C83.5177 23.3375 83.8263 21.7743 84.032 20.211C84.9577 13.8462 85.8834 7.48145 86.9119 1.00503C86.9119 0.670039 87.4262 0.223389 87.6319 0.223389C91.8489 0.223389 96.1688 0.223389 100.489 0.223389C100.694 2.00999 100.9 3.79659 101.106 5.58319C98.4316 5.58319 95.8602 5.58319 93.186 5.58319C92.2603 5.58319 91.9518 5.80652 91.8489 6.81148C91.4375 9.49138 91.3346 9.49138 93.8031 9.49138C95.7574 9.49138 97.7116 9.49138 99.7687 9.49138Z" fill="white"/>
<path d="M23.0393 0.223235C23.245 2.00984 23.4507 3.68477 23.6564 5.58304C22.4222 5.58304 21.1879 5.58304 19.9537 5.58304C19.5422 5.58304 19.028 5.58304 18.6166 5.58304C17.4852 5.35971 17.1766 5.91802 17.0737 7.03465C16.2509 12.7294 15.3252 18.3126 14.5024 24.0074C14.3995 24.789 14.091 25.0123 13.4738 25.0123C11.931 25.0123 10.2854 25.0123 8.53684 25.0123C9.56538 18.4242 10.4911 12.0595 11.4168 5.58304C9.25682 5.58304 7.30259 5.58304 5.03979 5.58304C5.55407 4.24309 6.06834 3.23812 6.3769 2.00984C6.78832 0.558222 7.5083 0.111572 8.94825 0.111572C13.5767 0.223235 18.308 0.223235 23.0393 0.223235Z" fill="white"/>
<path d="M82.592 0C82.7978 2.00993 83.0035 3.79653 83.1063 5.69479C81.2549 5.69479 79.6093 5.69479 77.8607 5.69479C75.0837 5.80645 72.5123 6.69975 70.661 9.04467C68.8096 11.2779 68.0896 14.0695 67.8839 16.9727C67.6782 19.7643 67.781 22.4442 69.1181 25.1241C67.2668 26.3524 65.6211 27.469 63.564 28.8089C62.9469 26.2407 62.2269 24.0074 62.0212 21.6625C61.5069 17.3077 62.4326 13.1762 64.284 9.26799C66.5468 4.80149 69.8381 1.7866 74.4666 0.781638C77.1408 0.334988 79.815 0.223325 82.592 0Z" fill="white"/>
<path d="M73.438 25.1241C73.7466 22.8909 74.0551 20.7693 74.3637 18.6477C74.8779 14.9628 75.4951 11.3896 75.9065 7.70476C76.0093 6.81146 76.3179 6.58813 77.1407 6.58813C78.6836 6.6998 80.3292 6.58813 81.9749 6.58813C81.5635 9.15637 81.2549 11.6129 80.8435 14.0695C80.3292 17.4194 79.8149 20.7693 79.4035 24.1192C79.3007 24.9008 79.095 25.1241 78.375 25.1241C76.7293 25.0125 75.1865 25.1241 73.438 25.1241Z" fill="white"/>
<path d="M120.545 45H0L0.719979 42.3201H121.265L120.545 45Z" fill="white"/>
</g>
<defs>
<clipPath id="clip0_2543_77">
<rect width="125.791" height="45" fill="white"/>
</clipPath>
</defs>
</svg>
